<mxfile host="Electron" modified="2023-07-31T14:33:34.431Z" agent="Mozilla/5.0 (Windows NT 10.0; Win64; x64) AppleWebKit/537.36 (KHTML, like Gecko) draw.io/21.6.5 Chrome/114.0.5735.243 Electron/25.3.1 Safari/537.36" etag="HzYe-APDv10hB9RJ_CvF" version="21.6.5" type="device">
  <diagram name="Page-1" id="5SvmHuKXJBpUvMMgy40t">
    <mxGraphModel dx="2049" dy="1338" grid="1" gridSize="10" guides="1" tooltips="1" connect="1" arrows="1" fold="1" page="1" pageScale="1" pageWidth="1169" pageHeight="827" math="0" shadow="0">
      <root>
        <mxCell id="0" />
        <mxCell id="1" parent="0" />
        <mxCell id="BV5hf1cZSZyRzrNl-DUj-15" style="edgeStyle=orthogonalEdgeStyle;rounded=0;orthogonalLoop=1;jettySize=auto;html=1;exitX=1;exitY=0.5;exitDx=0;exitDy=0;entryX=0;entryY=0.5;entryDx=0;entryDy=0;endArrow=none;endFill=0;" edge="1" parent="1" source="BV5hf1cZSZyRzrNl-DUj-13" target="BV5hf1cZSZyRzrNl-DUj-14">
          <mxGeometry relative="1" as="geometry" />
        </mxCell>
        <mxCell id="BV5hf1cZSZyRzrNl-DUj-16" value="employee" style="edgeLabel;html=1;align=center;verticalAlign=middle;resizable=0;points=[];" vertex="1" connectable="0" parent="BV5hf1cZSZyRzrNl-DUj-15">
          <mxGeometry x="-0.5" y="-4" relative="1" as="geometry">
            <mxPoint x="-3" y="-13" as="offset" />
          </mxGeometry>
        </mxCell>
        <mxCell id="BV5hf1cZSZyRzrNl-DUj-17" value="employer" style="edgeLabel;html=1;align=center;verticalAlign=middle;resizable=0;points=[];" vertex="1" connectable="0" parent="BV5hf1cZSZyRzrNl-DUj-15">
          <mxGeometry x="0.4167" y="-1" relative="1" as="geometry">
            <mxPoint x="8" y="-10" as="offset" />
          </mxGeometry>
        </mxCell>
        <mxCell id="BV5hf1cZSZyRzrNl-DUj-18" value="*" style="edgeLabel;html=1;align=center;verticalAlign=middle;resizable=0;points=[];" vertex="1" connectable="0" parent="BV5hf1cZSZyRzrNl-DUj-15">
          <mxGeometry x="-0.15" y="-2" relative="1" as="geometry">
            <mxPoint x="-45" y="6" as="offset" />
          </mxGeometry>
        </mxCell>
        <mxCell id="BV5hf1cZSZyRzrNl-DUj-19" value="0..1" style="edgeLabel;html=1;align=center;verticalAlign=middle;resizable=0;points=[];" vertex="1" connectable="0" parent="BV5hf1cZSZyRzrNl-DUj-15">
          <mxGeometry x="0.7667" y="-1" relative="1" as="geometry">
            <mxPoint x="-1" y="6" as="offset" />
          </mxGeometry>
        </mxCell>
        <mxCell id="BV5hf1cZSZyRzrNl-DUj-24" value="0..1" style="edgeLabel;html=1;align=center;verticalAlign=middle;resizable=0;points=[];" vertex="1" connectable="0" parent="BV5hf1cZSZyRzrNl-DUj-15">
          <mxGeometry x="0.7667" y="-1" relative="1" as="geometry">
            <mxPoint x="-160" y="-31" as="offset" />
          </mxGeometry>
        </mxCell>
        <mxCell id="BV5hf1cZSZyRzrNl-DUj-13" value="Person" style="html=1;whiteSpace=wrap;" vertex="1" parent="1">
          <mxGeometry x="41" y="40" width="80" height="40" as="geometry" />
        </mxCell>
        <mxCell id="BV5hf1cZSZyRzrNl-DUj-14" value="Company" style="html=1;whiteSpace=wrap;" vertex="1" parent="1">
          <mxGeometry x="241" y="40" width="80" height="40" as="geometry" />
        </mxCell>
        <mxCell id="BV5hf1cZSZyRzrNl-DUj-22" style="edgeStyle=orthogonalEdgeStyle;rounded=0;orthogonalLoop=1;jettySize=auto;html=1;exitX=0;exitY=0.5;exitDx=0;exitDy=0;entryX=0.5;entryY=0;entryDx=0;entryDy=0;endArrow=openThin;endFill=0;" edge="1" parent="1" source="BV5hf1cZSZyRzrNl-DUj-13" target="BV5hf1cZSZyRzrNl-DUj-13">
          <mxGeometry relative="1" as="geometry">
            <Array as="points">
              <mxPoint x="1" y="60" />
              <mxPoint x="1" />
              <mxPoint x="81" />
            </Array>
          </mxGeometry>
        </mxCell>
        <mxCell id="BV5hf1cZSZyRzrNl-DUj-23" value="boss" style="edgeLabel;html=1;align=center;verticalAlign=middle;resizable=0;points=[];" vertex="1" connectable="0" parent="BV5hf1cZSZyRzrNl-DUj-22">
          <mxGeometry x="0.8182" y="-3" relative="1" as="geometry">
            <mxPoint x="18" y="4" as="offset" />
          </mxGeometry>
        </mxCell>
        <mxCell id="BV5hf1cZSZyRzrNl-DUj-26" style="rounded=0;orthogonalLoop=1;jettySize=auto;html=1;exitX=0;exitY=0;exitDx=98.5;exitDy=0;exitPerimeter=0;entryX=0.5;entryY=1;entryDx=0;entryDy=0;dashed=1;endArrow=none;endFill=0;" edge="1" parent="1" source="BV5hf1cZSZyRzrNl-DUj-25" target="BV5hf1cZSZyRzrNl-DUj-13">
          <mxGeometry relative="1" as="geometry" />
        </mxCell>
        <mxCell id="BV5hf1cZSZyRzrNl-DUj-25" value="{self.boss-&amp;gt;isEmpty() or&lt;br&gt;self.employer = self.boss.employer}" style="shape=note;size=12;whiteSpace=wrap;html=1;align=left;" vertex="1" parent="1">
          <mxGeometry x="41" y="120" width="209" height="40" as="geometry" />
        </mxCell>
      </root>
    </mxGraphModel>
  </diagram>
</mxfile>
